<svg xmlns="http://www.w3.org/2000/svg" xmlns:xlink="http://www.w3.org/1999/xlink" viewBox="0,0,256,256" width="50px" height="50px"><g fill="#426a5a" fill-rule="nonzero" stroke="none" stroke-width="1" stroke-linecap="butt" stroke-linejoin="miter" stroke-miterlimit="10" stroke-dasharray="" stroke-dashoffset="0" font-family="none" font-weight="none" font-size="none" text-anchor="none" style="mix-blend-mode: normal"><g transform="scale(5.12,5.12)"><path d="M28.8125,0.03125l-28,5.3125c-0.47266,0.08984 -0.8125,0.51953 -0.8125,1v37.3125c0,0.48047 0.33984,0.91016 0.8125,1l28,5.3125c0.0625,0.01172 0.125,0.03125 0.1875,0.03125c0.23047,0 0.44531,-0.07031 0.625,-0.21875c0.23047,-0.19141 0.375,-0.48437 0.375,-0.78125v-48c0,-0.29687 -0.14453,-0.58984 -0.375,-0.78125c-0.23047,-0.19141 -0.51953,-0.24219 -0.8125,-0.1875zM32,5v10h6v2h-6v3h6v2h-6v3h6v2h-6v3h6v2h-6v3h6v2h-6v9h12c0.55469,0 1,-0.44531 1,-1v-27h3c1.10156,0 2,-0.89844 2,-2v-9c0,-1.10156 -0.89844,-2 -2,-2zM6.53125,15.6875h4l6.5,11.3125c0.29688,0.50781 0.59375,1 0.84375,1.5h0.03125c-0.0625,-0.43359 -0.09375,-1.29297 -0.09375,-2.5625v-10.25h3.5v18.5625h-3.75l-6.75,-11.65625c-0.39844,-0.68359 -0.66016,-1.21484 -0.8125,-1.5625h-0.0625c0.0625,0.65625 0.09375,1.65234 0.09375,3v10.21875h-3.5zM47,20v12h1c1.10156,0 2,-0.89844 2,-2v-8c0,-1.10156 -0.89844,-2 -2,-2zM47,34v12h1c1.10156,0 2,-0.89844 2,-2v-8c0,-1.10156 -0.89844,-2 -2,-2z"></path></g></g></svg>