<svg id="Layer_1" data-name="Layer 1" xmlns="http://www.w3.org/2000/svg" viewBox="0 0 1200 1200"><defs><style>.cls-1{fill:#e9e8e8;}.cls-2{fill:#fff;}.cls-3{fill:#9dd5c0;}.cls-4,.cls-7,.cls-8{fill:none;}.cls-4{stroke:#1d252e;stroke-linecap:round;}.cls-4,.cls-7{stroke-width:4px;}.cls-5{fill:#1d252e;}.cls-6{fill:#222021;}.cls-7{stroke:#222021;stroke-miterlimit:10;}</style></defs><path class="cls-1" d="M993.23,817.76C986.75,832.1,972,844,951.43,854.05c-33.15,16.2-81.5,27.6-135.08,36.72-73.48,12.51-156.81,20.71-224.34,31-76.34,11.67-140.58,0-193.56-27.27-49-25.19-88.34-63.68-118.74-109.32-105.66-158.63-103-403.57-19.7-476.07,133.15-115.93,387.44,83.31,498.13,158.15C827.25,514,1045.12,702.94,993.23,817.76Z"/><path class="cls-2" d="M301,744.62c.21-16.42-.33-32.08-2.66-39.77-6.09-20.11-33.4-130.63-16.17-167.39s45.1-56.17,72.52-68.36l22.76-7.29S438.48,741,429.59,764.3s-13.91,39.12-13.91,39.12L298.33,764.3Z"/><path class="cls-3" d="M926.16,770.9H374.57a12,12,0,0,1-11.95-12V367.1a12,12,0,0,1,11.95-12H926.16a11.9,11.9,0,0,1,11.84,12V758.94A11.9,11.9,0,0,1,926.16,770.9Z"/><circle class="cls-4" cx="471.01" cy="390.94" r="17.56"/><circle class="cls-4" cx="565.79" cy="390.94" r="17.56"/><circle class="cls-4" cx="660.57" cy="390.94" r="17.56"/><circle class="cls-4" cx="755.35" cy="390.94" r="17.56"/><path class="cls-2" d="M469.19,350.39c16.92,0,12,38.8,3.5,38.8"/><path class="cls-5" d="M472.69,398.8A9.61,9.61,0,0,1,469,380.34c2.48-4.92,2.66-17.55.12-20.35a9.61,9.61,0,0,1,.12-19.21c7.37,0,13.67,4,17.27,11,3,5.81,3.63,12.59,3.63,17.25C490.09,383.35,484.65,398.8,472.69,398.8ZM469.28,360h0Z"/><path class="cls-2" d="M564,350.39c18.15,0,11.39,38.8,3.5,38.8"/><path class="cls-5" d="M567.47,398.8a9.61,9.61,0,0,1-3.88-18.4c2.64-4.94,3.2-18,.66-20.39l-.28,0a9.61,9.61,0,0,1,0-19.21,19.45,19.45,0,0,1,17.37,10.35c3.13,5.63,3.79,12.29,3.79,16.89C585.13,380.39,580.43,398.8,567.47,398.8ZM564.33,360h0Z"/><path class="cls-2" d="M658.76,350.39c18.1,0,12,38.8,3.49,38.8"/><path class="cls-5" d="M662.25,398.8a9.61,9.61,0,0,1-3.63-18.5c1.31-2.62,2.8-9,2.11-15-.4-3.5-1.38-5-1.68-5.28,0,0-.12,0-.29,0a9.61,9.61,0,1,1,0-19.21,19.61,19.61,0,0,1,17.5,10.49c3.18,5.73,3.85,12.47,3.85,17.12C680.11,380.61,675.35,398.8,662.25,398.8Z"/><path class="cls-2" d="M753.54,350.39c18.06,0,11.37,38.8,3.49,38.8"/><path class="cls-5" d="M757,398.8a9.61,9.61,0,0,1-4-18.36,30.74,30.74,0,0,0,2.34-10.81c.28-5.71-.95-8.9-1.62-9.63h-.24a9.61,9.61,0,1,1,0-19.21,19.43,19.43,0,0,1,17.34,10.37c3.12,5.64,3.77,12.3,3.77,16.9C774.65,380.41,770,398.8,757,398.8ZM753.86,360h0Z"/><path class="cls-2" d="M848.32,350.39c14.84,0,9.5,38.8,3.49,38.8"/><path class="cls-5" d="M851.81,398.8a9.61,9.61,0,0,1-5.35-17.58c2-5,2.61-17.35.6-21.31a9.61,9.61,0,0,1,1.26-19.13c9.27,0,19.18,7.29,19.18,27.74a63.51,63.51,0,0,1-2.24,16.8C863.48,391.47,859.7,398.8,851.81,398.8ZM848.32,360h0Z"/><circle class="cls-4" cx="850.13" cy="390.94" r="17.56"/><path class="cls-4" d="M449.34,369H379V740a12,12,0,0,0,12,12h527.2V369"/><line class="cls-4" x1="445.27" y1="473.84" x2="870.78" y2="473.84"/><line class="cls-4" x1="445.27" y1="504.62" x2="870.78" y2="504.62"/><line class="cls-4" x1="445.27" y1="558.94" x2="531.72" y2="558.94"/><line class="cls-4" x1="445.27" y1="589.73" x2="870.78" y2="589.73"/><line class="cls-4" x1="445.27" y1="644.05" x2="870.78" y2="644.05"/><line class="cls-4" x1="445.27" y1="674.83" x2="870.78" y2="674.83"/><path class="cls-2" d="M356.42,590.84c6.2,8.11,10.77,66.54,3.25,76.28"/><line class="cls-4" x1="416.62" y1="466.89" x2="416.62" y2="481.87"/><line class="cls-4" x1="416.62" y1="547.99" x2="416.62" y2="562.97"/><line class="cls-4" x1="407.47" y1="562.97" x2="407.47" y2="547.99"/><line class="cls-4" x1="416.62" y1="637.64" x2="416.62" y2="652.62"/><line class="cls-4" x1="407.47" y1="637.64" x2="407.47" y2="652.62"/><line class="cls-4" x1="398.09" y1="637.64" x2="398.09" y2="652.62"/><path class="cls-2" d="M633,541.73s65.84-64.15,118.4-62,91.37,45.11,124.83,121.12S905.82,700,905.82,700s-103,38.61-112,20.59-55.34-87.56-89.36-97.14C663.62,612,633,566.18,633,566.18Z"/><path class="cls-4" d="M857,562q9.94,17.67,19.23,38.85c33.46,76,29.6,99.18,29.6,99.18s-103,38.61-112,20.59-55.34-87.56-89.36-97.14C663.62,612,633,566.18,633,566.18V541.73s65.84-64.15,118.4-62c26.5,1.09,49.5,12.54,70.08,33.37"/><path class="cls-6" d="M852.42,552.37,597.19,572.83l-2.53-31.48L849.9,520.88C875,518.87,877.5,550.36,852.42,552.37Z"/><path class="cls-3" d="M594.66,541.35l2.53,31.48-36.07-8.54-11.84-2.8a.7.7,0,0,1-.11-1.33l11.24-4.65Z"/><path class="cls-6" d="M560.41,555.51l.71,8.78-11.84-2.8a.7.7,0,0,1-.11-1.33Z"/><path class="cls-3" d="M849,552.64l-18.51,1.49L828,522.64l21.95-1.76c25.08-2,27.6,29.48,2.52,31.49l-3.44.27"/><line class="cls-7" x1="834.7" y1="522.1" x2="837.23" y2="553.59"/><path class="cls-2" d="M793.86,720.61c-9-18-55.34-87.56-89.36-97.14C663.62,612,600.82,575.19,633,566.18S730.8,602.87,752.68,598"/><path class="cls-4" d="M793.86,720.61c-9-18-55.34-87.56-89.36-97.14-30.66-8.64-73.65-31.47-79.66-46.15"/><path class="cls-6" d="M951.43,854.05c-33.15,16.2-81.5,27.6-135.08,36.72L782.8,722.82a11.26,11.26,0,0,1,8.8-14l111.89-21.06a11.28,11.28,0,0,1,13,8.09Z"/><path class="cls-4" d="M420.69,787.57c1.42-4.19,2.8-8.51,4.07-12.86"/><path class="cls-4" d="M354.67,469.1c-27.42,12.19-55.29,31.6-72.52,68.36s10.08,147.28,16.17,167.39c2.33,7.69,2.87,23.35,2.66,39.77"/><path class="cls-6" d="M433.36,806.32l-34.91,88.21c-49-25.19-88.34-63.68-118.74-109.32l10.51-23.82a8.12,8.12,0,0,1,10.42-6.59l128,39.79A8.18,8.18,0,0,1,433.36,806.32Z"/><path class="cls-2" d="M337.53,537.46s45.83-67.23,69.94-46.27-57.25,91.53-51.05,99.65,10.77,66.54,3.25,76.28"/><path class="cls-4" d="M337.53,537.46s45.83-67.23,69.94-46.27-57.25,91.53-51.05,99.65,10.77,66.54,3.25,76.28"/><rect class="cls-8" width="1200" height="1200"/></svg>